PathFileType	4	(X/Y/Z)	c:/Users/goper/Files/vsCode/490R/osim_files/A03/A03_Slow_01.trc
DataRate	CameraRate	NumFrames	NumMarkers	Units                	OrigDataRate	OrigDataStartFrame	OrigNumFrames
250.00	250.00	9	36	mm	250.0	1771	2832
                Frame#	Time	LPSIS			LASIS			LTH1			LTH2			LTH3			LTH4			LLFE			LMFE			LSH1			LSH2			LSH3			LSH4			LLMAL			LMMAL			LCAL			LMTP5			LTOE			LMTP1			RPSIS			RASIS			RTH1			RTH2			RTH3			RTH4			RLFE			RMFE			RSH1			RSH2			RSH3			RSH4			RLMAL			RMMAL			RCAL			RMTP1			RTOE			RMTP5		
		X1	Y1	Z1	X2	Y2	Z2	X3	Y3	Z3	X4	Y4	Z4	X5	Y5	Z5	X6	Y6	Z6	X7	Y7	Z7	X8	Y8	Z8	X9	Y9	Z9	X10	Y10	Z10	X11	Y11	Z11	X12	Y12	Z12	X13	Y13	Z13	X14	Y14	Z14	X15	Y15	Z15	X16	Y16	Z16	X17	Y17	Z17	X18	Y18	Z18	X19	Y19	Z19	X20	Y20	Z20	X21	Y21	Z21	X22	Y22	Z22	X23	Y23	Z23	X24	Y24	Z24	X25	Y25	Z25	X26	Y26	Z26	X27	Y27	Z27	X28	Y28	Z28	X29	Y29	Z29	X30	Y30	Z30	X31	Y31	Z31	X32	Y32	Z32	X33	Y33	Z33	X34	Y34	Z34	X35	Y35	Z35	X36	Y36	Z36

1771	7.08000	-1009.13354	1041.14795	257.70013	-1254.24011	955.49176	375.59918	-1311.01160	622.49493	410.42639	-1335.81750	586.72076	406.28659	-1362.33960	650.33521	389.28876	-1377.98621	609.77515	386.16937	-1331.52551	544.48267	395.29037	-1360.00537	541.62848	241.58528	-1316.40381	449.80307	394.86380	-1332.52026	404.65939	395.07413	-1377.96484	463.26947	393.12878	-1382.59680	416.05252	387.93646	-1436.60376	97.24809	373.91226	-1450.88623	104.53182	275.37888	-1373.87378	74.58519	318.45273	-1593.19604	67.37834	390.33798	-1619.85486	101.96935	322.27255	-1595.18738	74.90334	276.51282	-1009.03925	1057.13464	175.48280	-1237.38867	939.71350	73.98714	-1050.66150	601.15186	34.64360	-1042.32031	557.50342	41.23945	-1109.90454	582.67810	36.36136	-1094.44861	541.84259	42.68624	-1053.09619	518.27655	54.74961	-1099.52698	507.99130	170.57773	-974.28619	478.20224	60.46657	-953.41351	442.32043	49.47808	-1026.07251	444.23843	50.54100	-995.29987	409.40765	41.46153	-828.09460	147.63715	93.98886	0.00000	0.00000	0.00000	-762.51263	111.29113	153.69772	-968.07965	49.58495	192.97845	-992.45148	69.82302	145.36433	-956.71838	42.00191	76.71429
1772	7.08400	-1013.90021	1040.98572	258.41742	-1259.21875	955.80060	376.25598	-1314.75574	622.35919	410.88382	-1339.36951	586.44397	406.87897	-1366.31299	650.03387	390.11786	-1381.76196	609.33606	387.09692	-1335.72009	544.50024	396.14102	-1364.10876	541.70831	242.42375	-1319.92004	449.92459	395.54144	-1335.67090	404.65024	395.68698	-1381.52502	462.95270	393.82669	-1385.83337	415.65094	388.56808	-1437.70544	96.79197	373.91394	-1452.02869	104.10844	275.59534	-1374.60217	74.79950	318.61340	-1593.96863	65.24815	390.24741	-1621.07263	99.67426	322.22290	-1595.61133	73.18687	276.24426	-1013.66461	1056.88940	176.14398	-1242.22729	939.56586	74.68634	-1055.58911	601.11017	34.41724	-1047.11670	557.42572	40.88781	-1114.72229	582.51135	35.87307	-1099.18921	541.68384	42.09234	-1057.76318	518.17273	54.19054	-1103.96008	507.52707	169.98643	-978.52289	478.76126	60.14194	-957.33295	443.07529	49.22555	-1030.02563	444.36203	50.01367	-998.97174	409.77621	41.03202	-829.83032	149.39375	93.92959	0.00000	0.00000	0.00000	-763.53778	113.53564	154.15143	-968.30200	49.38393	193.22134	-992.81311	69.68579	145.50870	-956.80817	42.15858	76.96534
1773	7.08800	-1018.69073	1040.91699	259.11041	-1264.14502	956.15161	376.90399	-1318.38684	622.23236	411.39584	-1342.95032	586.18976	407.56100	-1370.15515	649.63641	390.81207	-1385.51038	608.98071	387.89789	-1339.87061	544.53510	397.07129	-1368.17407	541.81226	243.29356	-1323.37427	450.06708	396.30313	-1338.85828	404.65445	396.38651	-1384.31775	461.87756	394.03937	-1389.05151	415.37402	389.27246	-1438.87683	96.32900	373.96988	-1453.08411	103.83272	275.91852	-1375.34314	75.02199	318.78806	-1594.72192	63.06619	390.20499	-1621.52808	97.39244	322.01132	-1596.37817	71.26276	276.21082	-1018.37817	1056.59827	176.83003	-1246.74951	939.22382	75.10151	-1060.65051	601.05554	34.15491	-1052.10303	557.42236	40.47980	-1119.73914	582.40936	35.29624	-1104.14709	541.56946	41.40937	-1062.68420	518.07855	53.53897	-1108.71997	507.12613	169.41386	-983.05908	479.31955	59.79091	-961.54523	443.81393	48.95570	-1034.26990	444.52542	49.45868	-1003.11206	409.99475	41.14551	-831.66119	151.24127	93.91235	0.00000	0.00000	0.00000	-765.46252	115.89700	153.85236	-968.58783	49.20364	193.39684	-993.29407	69.51619	145.67610	-956.89728	42.33089	77.25368
1774	7.09200	-1023.43677	1040.94202	259.82516	-1269.01379	956.53381	377.56335	-1322.04907	622.14825	412.04221	-1346.60693	586.04248	408.34567	-1373.94519	649.39734	391.45642	-1389.18665	608.61169	388.76758	-1343.94409	544.57104	398.14273	-1372.13782	541.87878	244.25571	-1326.85071	450.22073	397.21930	-1342.02246	404.71570	397.20432	-1387.83105	461.64124	394.86496	-1391.76892	416.13074	392.13046	-1439.97461	95.89171	374.05676	-1454.15125	103.56313	276.34860	-1376.04529	75.24741	319.01770	-1595.51587	61.00580	390.27649	-1623.14575	95.19530	322.29495	-1597.19336	69.52715	276.31210	-1023.10699	1056.40454	177.48309	-1252.03833	939.08270	75.26341	-1065.92163	601.06647	33.85882	-1057.28467	557.39734	39.99582	-1124.94836	582.35199	34.64235	-1109.34387	541.49396	40.65614	-1067.84814	518.02557	52.84436	-1114.70471	506.99057	168.27469	-987.90332	479.90857	59.36491	-965.98889	444.56744	48.59019	-1038.71729	444.68646	48.84724	-1007.20642	410.46274	40.64304	-833.71021	153.22652	93.84816	0.00000	0.00000	0.00000	-767.09930	118.55133	154.07953	-969.02148	49.03680	193.59067	-993.87653	69.35158	145.88698	-957.03644	42.58671	77.51208
1775	7.09600	-1028.23425	1041.01367	260.47049	-1273.82483	956.94397	378.23755	-1325.71301	622.11761	412.84921	-1350.27881	585.94568	409.38965	-1377.77466	649.25177	392.25681	-1392.99512	608.47113	389.80634	-1348.00879	544.62622	399.24045	-1376.33179	542.01031	245.21509	-1330.26965	450.36969	398.16379	-1345.12622	404.75031	398.06580	-1391.30444	461.40881	395.86862	-1394.81836	415.85278	392.89221	-1440.99463	95.45340	374.21625	-1455.08887	103.37824	276.74490	-1376.69971	75.47800	319.25699	-1596.16418	59.08418	390.39319	-1624.13696	93.21385	322.53262	-1597.85559	67.94817	276.49063	-1027.79456	1056.22009	178.10522	-1256.72742	939.06854	75.82195	-1071.30029	601.05286	33.47682	-1062.67688	557.39136	39.46642	-1130.33728	582.31335	33.89415	-1114.76379	541.42468	39.81532	-1073.23706	518.00092	52.08855	-1120.34900	506.65784	167.34811	-992.96606	480.54623	58.88858	-970.68750	445.42755	48.21514	-1043.39380	444.87756	48.16061	-1011.51904	410.95898	40.07651	-836.01691	155.26704	93.81159	0.00000	0.00000	0.00000	-768.96503	121.44099	154.33467	-969.55145	48.86629	193.74228	-994.52173	69.13658	146.06721	-957.20203	42.79895	77.76462
1776	7.10000	-1033.01929	1041.17810	261.08881	-1278.57996	957.38116	378.92581	-1329.43225	622.19305	413.80618	-1353.97595	586.01093	410.56464	-1381.54224	649.12921	393.26294	-1396.73718	608.33722	391.09161	-1351.98132	544.68579	400.52869	-1380.60278	542.22974	246.23444	-1333.60315	450.58774	399.21613	-1348.15381	404.89493	398.99652	-1394.69434	461.19278	396.96658	-1397.81946	415.64587	393.80292	-1441.82202	95.11121	374.35980	-1455.95959	103.24332	276.80743	-1377.28503	75.66434	319.38629	-1596.71838	57.39252	390.62030	-1624.34814	91.60966	322.62167	-1598.47559	66.55160	276.72250	-1032.50610	1056.07910	178.68716	-1261.49402	939.10608	76.41531	-1077.00818	601.03442	33.02527	-1068.40332	557.34778	38.88339	-1135.96326	582.26160	33.08099	-1119.91882	541.20972	38.31174	-1079.19336	517.82245	51.42692	-1126.24561	506.28973	166.36137	-998.27606	481.21832	58.34558	-975.62463	446.33289	47.75922	-1048.34521	445.13528	47.39414	-1016.17023	411.48981	39.41656	-838.56104	157.45966	93.74648	0.00000	0.00000	0.00000	-771.12964	124.55541	154.56413	-970.12653	48.69802	193.85924	-995.26038	68.85624	146.16560	-957.40930	42.95925	78.02442
1777	7.10400	-1037.70203	1041.45740	261.63794	-1283.28052	957.84399	379.62741	-1333.10266	622.36279	414.90802	-1357.52795	586.09802	411.91171	-1385.32764	649.10706	394.45953	-1400.39819	608.25568	392.51898	-1355.89136	544.80554	401.91635	-1383.85876	542.38220	248.04584	-1336.74768	450.82758	400.30060	-1350.98633	405.03235	399.98044	-1398.00720	460.99921	398.15039	-1400.73718	415.44452	394.87366	-1442.50110	94.78444	374.42462	-1456.72937	103.05513	277.13358	-1377.76648	75.86341	319.50415	-1597.11768	55.89906	390.84827	-1625.61926	90.06776	323.17151	-1599.04285	65.31859	276.96899	-1037.20667	1055.99316	179.23488	-1266.31543	939.26917	77.03407	-1082.82837	601.04547	32.53577	-1074.24402	557.37109	38.20982	-1141.81897	582.26501	32.21706	-1125.84705	541.16058	37.30206	-1085.04700	517.82922	50.46605	-1132.37354	505.93915	165.20422	-1003.89172	481.95053	57.70341	-980.82812	447.28448	47.22113	-1053.57837	445.36798	46.54295	-1021.75330	412.21548	38.10605	-840.92010	159.98676	94.06273	0.00000	0.00000	0.00000	-773.39850	127.92974	154.76610	-970.80157	48.57167	193.97845	-996.14758	68.55425	146.24910	-957.66425	43.10398	78.29061
1778	7.10800	-1042.34973	1041.74878	262.10135	-1287.92773	958.33160	380.34164	-1336.74573	622.61969	416.18802	-1360.95764	586.21167	413.39569	-1389.00378	649.02820	395.79816	-1404.56909	608.71594	393.95087	-1359.61462	544.92004	403.32779	-1387.88745	542.73810	249.49522	-1339.89136	451.05533	401.45587	-1353.78625	405.13654	401.01529	-1401.11975	460.76682	399.35620	-1404.86255	413.89624	394.26767	-1443.11865	94.49406	374.49765	-1457.47949	102.92860	277.41055	-1378.18823	76.05925	319.56088	-1597.42285	54.51586	391.05963	-1626.25305	88.62827	323.49039	-1599.52722	64.16531	277.21216	-1041.93262	1055.96887	179.76390	-1271.07007	939.46869	77.60787	-1088.90417	601.03888	32.00672	-1080.40479	557.34113	37.51270	-1147.89844	582.29205	31.31171	-1131.95569	541.18597	36.23906	-1091.22607	517.74939	49.50225	-1138.61157	505.53180	164.03519	-1009.80707	482.64206	57.04221	-986.36115	448.23816	46.58874	-1059.00256	445.65109	45.60477	-1027.28516	412.74664	37.88171	-843.82306	162.42166	93.92430	0.00000	0.00000	0.00000	-775.97388	131.53093	154.82858	-971.54639	48.45491	194.07112	-997.11713	68.20633	146.30452	-957.94348	43.25253	78.51725
1779	7.11200	-1047.01367	1042.14941	262.46698	-1292.52344	958.84265	381.06769	-1340.32043	622.85107	417.52914	-1364.39380	586.36578	414.90848	-1392.75989	649.03827	397.28485	-1408.10022	608.65985	395.58029	-1363.38135	545.05090	404.89386	-1391.78394	543.08258	250.99460	-1342.97791	451.33771	402.65915	-1356.52136	405.34378	402.10648	-1404.32910	460.66086	400.68451	-1407.68604	413.73685	395.40817	-1443.68042	94.26347	374.54672	-1458.21448	102.84094	277.78934	-1378.61707	76.25455	319.63083	-1597.68909	53.13900	391.29721	-1626.29028	87.24014	323.62646	-1600.04651	63.10152	277.48523	-1046.60779	1055.97705	180.18118	-1275.83850	939.69904	78.20473	-1095.15576	601.05322	31.39042	-1086.69043	557.30707	36.73563	-1154.07556	582.41553	30.27764	-1138.32275	541.19666	35.15393	-1097.58887	517.72241	48.46941	-1145.20276	505.12534	162.76015	-1015.92310	483.44434	56.27187	-992.20715	449.20050	45.84427	-1064.81287	445.94531	44.65685	-1031.50391	413.46899	36.52329	-847.03735	164.92368	93.61804	0.00000	0.00000	0.00000	-778.84015	135.35284	154.76051	-972.46893	48.44470	194.05055	-998.27405	67.73970	146.21967	-958.35284	43.34782	78.75789
